PathFileType	4	(X/Y/Z)	 s03c0101.trc
DataRate	CameraRate	NumFrames	NumMarkers	Units	OrigDataRate	OrigDataStartFrame	OrigNumFrames
200	200	5	52	mm	200	251	2000
Frame#	Time	racr			lacr			c7			jug			rlel			rdr			llel			ldr			s2			lic			ric			lasi			rasi			rpsi			lpsi			rgt			lgt			rth1			rth2			rth3			rth4			rlfc			rmfc			rsh1			rsh2			rsh3			rsh4			rlmal			rmmal			rcal			rtoe			rmt5			rmt1			lth1			lth2			lth4			lth3			llfc			lmfc			lsh1			lsh2			lsh3			lsh4			llmal			lmmal			lcal			ltoe			lmt1			lmt5			SBIKE			LBIKE			RBIKE			
		X1	Y1	Z1	X2	Y2	Z2	X3	Y3	Z3	X4	Y4	Z4	X5	Y5	Z5	X6	Y6	Z6	X7	Y7	Z7	X8	Y8	Z8	X9	Y9	Z9	X10	Y10	Z10	X11	Y11	Z11	X12	Y12	Z12	X13	Y13	Z13	X14	Y14	Z14	X15	Y15	Z15	X16	Y16	Z16	X17	Y17	Z17	X18	Y18	Z18	X19	Y19	Z19	X20	Y20	Z20	X21	Y21	Z21	X22	Y22	Z22	X23	Y23	Z23	X24	Y24	Z24	X25	Y25	Z25	X26	Y26	Z26	X27	Y27	Z27	X28	Y28	Z28	X29	Y29	Z29	X30	Y30	Z30	X31	Y31	Z31	X32	Y32	Z32	X33	Y33	Z33	X34	Y34	Z34	X35	Y35	Z35	X36	Y36	Z36	X37	Y37	Z37	X38	Y38	Z38	X39	Y39	Z39	X40	Y40	Z40	X41	Y41	Z41	X42	Y42	Z42	X43	Y43	Z43	X44	Y44	Z44	X45	Y45	Z45	X46	Y46	Z46	X47	Y47	Z47	X48	Y48	Z48	X49	Y49	Z49	X50	Y50	Z50	X51	Y51	Z51	X52	Y52	Z52	
251	1.2550	488.242725	1391.956795	-63.398328	488.031973	1411.767646	-394.477383	430.832913	1493.794827	-222.627812	470.776626	1326.226581	-225.694428	522.004908	1130.136340	30.761345	744.011003	945.958092	-24.215346	539.189491	1152.475048	-484.707688	750.537664	939.845590	-418.331845	-79.692183	1209.049373	-239.503547	108.774461	1215.310379	-419.314241	93.509399	1229.480618	-51.059650	115.947955	1133.526213	-382.228785	104.797994	1165.473175	-96.513779	-52.609412	1258.627454	-194.499302	-42.405435	1254.548544	-277.496551	30.509422	1159.971747	-34.931346	39.216963	1103.508988	-432.591293	148.859501	1076.259245	-7.545091	237.463940	1071.051313	-1.245141	311.227993	1026.021802	1.912467	249.104069	1103.665975	-15.568642	432.922657	963.005590	-12.996143	446.535730	952.203652	-140.725886	358.812969	815.067965	-4.364792	332.847794	733.121553	-27.149560	267.034235	674.106452	-35.760655	358.951912	722.594644	-53.901408	192.761683	565.828806	-66.785080	218.700603	582.436682	-153.940623	124.789755	522.372465	-112.892394	434.155834	512.754336	-104.122655	312.925436	496.834158	-38.352966	341.998116	513.633748	-152.040880	107.367942	958.307403	-455.254482	166.416490	894.570284	-457.293409	198.734109	912.070207	-452.854967	186.938033	808.334769	-446.270341	260.990976	700.298565	-429.280769	265.636687	691.048349	-306.906496	178.293965	546.728720	-448.687071	169.132160	463.123283	-428.375095	115.918956	390.745100	-421.389441	198.628295	454.533153	-404.017843	60.031566	278.083357	-398.470684	96.540386	286.878089	-309.857881	-10.812403	241.798084	-348.046869	293.946419	184.248324	-354.368799	201.605973	195.147472	-309.395280	169.989353	179.174461	-423.736394	-209.946403	947.413190	-225.906890	-3.059416	84.149014	-431.051259	-6.616870	81.024424	-30.760624	
252	1.2600	488.214546	1391.917493	-63.376783	488.025134	1411.774057	-394.468708	430.809337	1493.767244	-222.624780	470.777750	1326.195669	-225.694869	521.989072	1130.107240	30.769042	744.013711	945.943400	-24.211356	539.204390	1152.478573	-484.733646	750.522700	939.861920	-418.333523	-79.729739	1209.031237	-239.542748	108.806106	1215.279212	-419.342583	93.464692	1229.463922	-51.078709	115.946948	1133.497644	-382.227202	104.772567	1165.504243	-96.485895	-52.633196	1258.606569	-194.549728	-42.425819	1254.537058	-277.532494	30.473856	1159.978314	-34.938647	39.218993	1103.484119	-432.606509	148.808112	1076.269788	-7.540837	237.410121	1071.061011	-1.241412	311.182193	1026.054575	1.952343	249.035474	1103.705045	-15.535648	432.859623	963.054422	-12.899818	446.507118	952.261067	-140.652107	358.797806	815.093599	-4.320156	332.836435	733.136893	-27.128016	267.012971	674.141483	-35.705682	358.940406	722.629478	-53.860727	192.758293	565.856397	-66.757856	218.679567	582.488525	-153.918534	124.772814	522.418981	-112.889981	434.134869	512.748878	-104.131868	312.882040	496.838489	-38.335851	341.994327	513.644505	-152.035366	107.363075	958.283222	-455.229680	166.420313	894.526285	-457.258774	198.729485	912.045454	-452.842295	186.950324	808.306039	-446.243789	260.986804	700.257135	-429.270160	265.606847	691.012903	-306.867673	178.295094	546.707275	-448.690801	169.422291	463.798906	-429.702171	115.934960	390.721881	-421.376714	199.779256	456.631137	-407.615366	60.025685	278.065084	-398.465738	96.545655	286.847411	-309.862184	-10.814637	241.753111	-348.039061	293.949723	184.269771	-354.366530	201.627540	195.106225	-309.373077	170.017251	179.163923	-423.733845	-209.957520	947.404913	-225.904412	-3.047833	84.132116	-431.046811	-6.622759	81.034262	-30.756225	
253	1.2650	488.207583	1391.893369	-63.371748	488.023456	1411.776239	-394.426918	430.807755	1493.736269	-222.615442	470.778907	1326.179596	-225.700468	521.969746	1130.088647	30.754628	744.006196	945.930778	-24.212929	539.184934	1152.491188	-484.791233	750.567643	939.897647	-418.373945	-79.754397	1209.005671	-239.566102	108.809377	1215.216958	-419.348938	93.431271	1229.488979	-51.109003	115.963260	1133.468160	-382.202631	104.722071	1165.480492	-96.532968	-52.651255	1258.575216	-194.631447	-42.432860	1254.505208	-277.589528	30.421373	1159.989071	-34.970353	39.222295	1103.446811	-432.614675	148.741513	1076.288537	-7.522251	237.367449	1071.088212	-1.211581	311.144038	1026.101646	1.995722	248.988833	1103.745004	-15.493389	432.822971	963.082616	-12.820047	446.502894	952.298954	-140.574288	358.770003	815.112522	-4.253644	332.832842	733.164387	-27.076554	267.009852	674.164123	-35.674568	358.940217	722.664327	-53.821024	192.743626	565.887957	-66.737925	218.674959	582.511088	-153.901641	124.773699	522.465727	-112.881525	434.117889	512.742263	-104.120540	312.890837	496.847427	-38.350464	341.974867	513.648114	-152.030625	107.388416	958.236046	-455.209158	166.421687	894.500024	-457.239343	198.732788	912.000366	-452.801752	186.956090	808.275402	-446.241937	260.983670	700.174627	-429.274622	265.578884	690.981565	-306.854029	178.296465	546.679130	-448.665064	169.155888	463.087191	-428.367715	115.940545	390.683767	-421.372168	198.616444	454.480595	-403.991945	60.029709	278.015013	-398.455776	96.526560	286.835964	-309.853219	-10.814656	241.716778	-348.044100	293.976613	184.265616	-354.370335	201.627549	195.106144	-309.373127	170.019943	179.153325	-423.736638	-209.957388	947.398998	-225.902668	-3.059692	84.140679	-431.027979	-6.605056	81.027219	-30.766475	
254	1.2700	488.187063	1391.875442	-63.358892	488.032798	1411.788663	-394.421703	430.784462	1493.715099	-222.593501	470.779751	1326.138982	-225.694933	521.968619	1130.059738	30.741630	743.998752	945.929141	-24.212675	539.181278	1152.504158	-484.820598	750.563623	939.893879	-418.369625	-79.765517	1208.989625	-239.617520	108.797274	1215.158002	-419.307985	93.388218	1229.481505	-51.126386	115.988356	1133.446221	-382.216609	104.695021	1165.531755	-96.504364	-52.687737	1258.574056	-194.657231	-42.452881	1254.505564	-277.610975	30.388269	1159.991992	-35.003684	39.231842	1103.418292	-432.635318	148.693297	1076.309526	-7.531911	237.306570	1071.133107	-1.179692	311.097282	1026.140705	2.025922	248.936552	1103.769945	-15.468149	432.791933	963.148583	-12.747630	446.481598	952.353563	-140.504743	358.731330	815.162424	-4.195413	332.819004	733.183750	-27.030664	266.988514	674.179877	-35.652283	359.014412	722.803195	-53.684780	192.740799	565.907607	-66.725443	218.670702	582.537815	-153.902447	124.768306	522.515012	-112.872619	434.123529	512.743504	-104.128762	312.889501	496.853834	-38.324547	341.973647	513.663046	-152.013443	107.372456	958.214078	-455.207455	166.428872	894.469703	-457.227341	198.732546	911.969100	-452.767739	186.950147	808.244660	-446.234444	260.964975	700.140251	-429.238997	265.527614	690.932189	-306.822305	178.306527	546.655904	-448.663654	169.131395	463.029196	-428.337823	115.944048	390.655737	-421.366749	198.616652	454.453372	-403.972146	60.028578	277.992387	-398.453911	96.481853	286.816320	-309.839166	-10.821200	241.665293	-348.052113	293.974599	184.280783	-354.367537	201.627554	195.106092	-309.373159	170.024960	179.137034	-423.736867	-209.961570	947.409132	-225.900102	-3.063950	84.160135	-431.058908	-6.612099	81.023657	-30.751429	
255	1.2750	488.175092	1391.806794	-63.334558	488.025906	1411.790754	-394.412861	430.772768	1493.677187	-222.604556	470.780739	1326.111494	-225.694800	521.960636	1130.058649	30.737585	744.012478	945.935751	-24.200630	539.173244	1152.532723	-484.857595	750.570215	939.927160	-418.382032	-79.777117	1208.982979	-239.637788	108.838183	1215.134135	-419.372677	93.347762	1229.480704	-51.132473	115.989865	1133.421256	-382.222305	104.644581	1165.537518	-96.517385	-52.695313	1258.561449	-194.707043	-42.467081	1254.488274	-277.655958	30.330092	1160.008167	-35.027545	39.247539	1103.396670	-432.648824	148.619088	1076.343770	-7.516012	237.266571	1071.156694	-1.181265	311.029615	1026.205776	2.048411	248.882094	1103.799383	-15.460566	432.735351	963.214279	-12.659045	446.473164	952.401233	-140.409438	358.713551	815.203858	-4.151589	332.808681	733.228840	-26.972749	266.975942	674.228601	-35.619136	358.988588	722.824541	-53.640672	192.745823	565.936962	-66.713154	218.679196	582.569140	-153.874838	124.775489	522.549983	-112.878264	434.116057	512.737334	-104.121112	312.871302	496.880385	-38.332599	341.965498	513.670995	-152.013891	107.378321	958.166039	-455.191601	166.420931	894.441829	-457.207555	198.738119	911.936656	-452.750604	186.934808	808.203376	-446.207740	260.959456	700.100703	-429.225752	265.462939	690.904057	-306.790070	178.317156	546.637856	-448.655855	169.434621	463.710549	-429.646789	115.931891	390.589983	-421.360852	199.780121	456.574070	-407.573060	60.021668	277.970120	-398.451728	96.458504	286.806371	-309.835201	-10.811028	241.619127	-348.025752	294.000496	184.281920	-354.371888	201.622937	195.083777	-309.360093	170.024691	179.133018	-423.738505	-209.958395	947.405687	-225.909217	-3.062240	84.147100	-431.043800	-6.617632	81.038752	-30.756377	
